<?xml version="1.0" standalone="no"?>
<!DOCTYPE svg PUBLIC "-//W3C//DTD SVG 20010904//EN"
 "http://www.w3.org/TR/2001/REC-SVG-20010904/DTD/svg10.dtd">
<svg version="1.0" xmlns="http://www.w3.org/2000/svg"
 width="20.000000pt" height="20.000000pt" viewBox="0 0 20.000000 20.000000"
 preserveAspectRatio="xMidYMid meet">

<g transform="translate(0.000000,20.000000) scale(0.100000,-0.100000)"
fill="#FFFFFF" stroke="none">
<path d="M108 161 c-44 -5 -64 -13 -85 -33 l-27 -27 23 -25 c14 -15 20 -30 16
-38 -4 -7 24 18 64 57 60 59 80 81 69 74 -2 -1 -29 -5 -60 -8z m22 -22 c0 -6
-8 -8 -19 -4 -25 8 -54 -21 -46 -46 8 -24 -17 -26 -36 -3 -11 14 -10 20 14 40
28 24 87 33 87 13z m-20 -23 c0 -2 -7 -9 -15 -16 -12 -10 -15 -10 -15 4 0 9 7
16 15 16 8 0 15 -2 15 -4z"/>
<path d="M160 134 c0 -5 5 -15 12 -22 18 -18 -21 -53 -69 -62 l-38 -8 37 -1
c29 -1 46 6 70 28 l33 30 -22 23 c-13 12 -23 18 -23 12z"/>
<path d="M113 85 c-17 -19 -16 -26 1 -19 15 6 30 34 18 34 -4 -1 -13 -7 -19
-15z"/>
</g>
</svg>
