<?xml version="1.0" standalone="no"?>
<!DOCTYPE svg PUBLIC "-//W3C//DTD SVG 20010904//EN"
 "http://www.w3.org/TR/2001/REC-SVG-20010904/DTD/svg10.dtd">
<svg version="1.0" xmlns="http://www.w3.org/2000/svg"
 width="20.000000pt" height="20.000000pt" viewBox="0 0 20.000000 20.000000"
 preserveAspectRatio="xMidYMid meet">

<g transform="translate(0.000000,20.000000) scale(0.100000,-0.100000)"
fill="#FFFFFF" stroke="none">
<path d="M28 130 l-33 -30 33 -30 c45 -42 99 -42 144 0 l33 30 -33 30 c-24 23
-42 30 -72 30 -30 0 -48 -7 -72 -30z m129 -5 l28 -25 -28 -25 c-16 -14 -40
-25 -57 -25 -17 0 -41 11 -57 25 l-28 25 28 25 c16 14 40 25 57 25 17 0 41
-11 57 -25z"/>
<path d="M76 124 c-9 -8 -16 -19 -16 -24 0 -11 29 -40 40 -40 11 0 40 29 40
40 0 11 -29 40 -40 40 -5 0 -16 -7 -24 -16z m44 -24 c0 -13 -7 -20 -20 -20
-13 0 -20 7 -20 20 0 13 7 20 20 20 13 0 20 -7 20 -20z"/>
</g>
</svg>
